<?xml version="1.0" encoding="utf-8"?>
<!-- Generator: Adobe Illustrator 22.0.1, SVG Export Plug-In . SVG Version: 6.00 Build 0)  -->
<svg version="1.1" id="Layer_1" xmlns="http://www.w3.org/2000/svg" xmlns:xlink="http://www.w3.org/1999/xlink" x="0px" y="0px"
	 width="173.6px" height="40.8px" viewBox="0 0 173.6 40.8" style="enable-background:new 0 0 173.6 40.8;" xml:space="preserve">
<style type="text/css">
	.st0{fill:#3E3839;}
</style>
<path class="st0" d="M24.6,22l-11.1,6.1v-6.4l11.1-6.2V22z M6.3,35.2l-1.2-1l7.4-4.1v9.1L12.1,39C10.9,38.3,8.5,37,6.3,35.2
	 M3.6,32.5c-0.8-1-1.4-2.1-1.8-3.1l-0.3-0.9l10.9-6.1v6.4l-8.2,4.5L3.6,32.5z M1.3,20.8l11.1-6.2V21L1.3,27.1V20.8z M1.3,12.8
	l0.4-0.3c1.4-1.1,5.3-3.6,10.7-3.8v4.6L1.3,19.4V12.8z M25.7,12c-0.1-0.1-2.4-2.2-6.3-3.6c-1.8-0.6-4-1.1-6.5-1.1
	C5.3,7.3,0.4,11.8,0.2,12L0,12.2v14.3c0,8.7,12.2,13.9,12.7,14.1l0.3,0.1l0.3-0.1c0.3-0.1,3.2-1.4,6.2-3.7c3.2-2.4,6.5-6,6.5-10.5
	V12.2L25.7,12z"/>
<path class="st0" d="M15.7,3c0.3,0.2,0.5,0.6,0.5,1c0,0.6-0.5,1.1-1.1,1.1c-0.6,0-1.1-0.5-1.1-1.1c0-0.5,0.3-0.9,0.8-1.1L12.9,0
	l-1.8,2.9C11.6,3,11.9,3.4,11.9,4c0,0.6-0.5,1.1-1.1,1.1c-0.6,0-1.1-0.5-1.1-1.1c0-0.4,0.2-0.8,0.6-1L8.3,1.2l0.6,5.4c0,0,0,0,0,0
	c1.2-0.3,2.6-0.4,4-0.4c1.3,0,2.7,0.1,4,0.4l0.6-5.4L15.7,3z"/>
<path class="st0" d="M40.1,14.8h4.7c5,0,8.5,3.3,8.5,8.1V23c0,4.7-3.5,8-8.5,8h-4.7V14.8z M44.8,12.4h-7.4v21.2h7.4
	c6.5,0,11.2-4.4,11.2-10.6v-0.1C56,16.8,51.3,12.4,44.8,12.4"/>
<path class="st0" d="M99.2,24.6c0,4.3-2.2,6.7-6.1,6.7c-3.9,0-6.2-2.5-6.2-6.9V12.4h-2.7v12.3c0,5.8,3.3,9.2,8.8,9.2
	c5.5,0,8.9-3.5,8.9-9.4V12.4h-2.7V24.6z"/>
<polygon class="st0" points="64.3,24.1 75.7,24.1 75.7,21.6 64.3,21.6 64.3,14.8 77,14.8 77,12.4 61.6,12.4 61.6,33.5 77.2,33.5 
	77.2,31 64.3,31 "/>
<path class="st0" d="M111.8,14.8h6.3c3.2,0,5.2,1.5,5.2,3.9v0.1c0,2.5-2,4.1-5.2,4.1h-6.2V14.8z M126,18.8L126,18.8
	c0-1.7-0.6-3.2-1.7-4.3c-1.4-1.4-3.5-2.1-6-2.1h-9.1v21.2h2.7v-8.1h5.7l6,8.1h3.3l-6.4-8.6C123.9,24.2,126,22,126,18.8"/>
<polygon class="st0" points="135.8,24.1 147.1,24.1 147.1,21.6 135.8,21.6 135.8,14.8 148.5,14.8 148.5,12.4 133.1,12.4 133.1,33.5 
	148.6,33.5 148.6,31 135.8,31 "/>
<polygon class="st0" points="171,12.4 171,28.7 158.1,12.4 155.7,12.4 155.7,33.5 158.3,33.5 158.3,16.7 171.5,33.5 173.6,33.5 
	173.6,12.4 "/>
</svg>
